<svg width="20" height="20" viewBox="0 0 20 20" fill="none" xmlns="http://www.w3.org/2000/svg">
<path d="M18.3195 8.67737L7.06328 1.79221C6.82722 1.6483 6.55721 1.5696 6.2808 1.56415C6.00439 1.55869 5.73148 1.62667 5.48992 1.76115C5.24837 1.89563 5.04682 2.09179 4.90585 2.32962C4.76488 2.56744 4.68953 2.83841 4.6875 3.11487V16.8852C4.68953 17.1616 4.76488 17.4326 4.90585 17.6704C5.04682 17.9083 5.24837 18.1044 5.48992 18.2389C5.73148 18.3734 6.00439 18.4414 6.2808 18.4359C6.55721 18.4304 6.82722 18.3517 7.06328 18.2078L18.3195 11.3227C18.5465 11.1845 18.7341 10.9903 18.8643 10.7586C18.9945 10.527 19.0628 10.2657 19.0628 10C19.0628 9.73431 18.9945 9.47306 18.8643 9.24142C18.7341 9.00978 18.5465 8.81553 18.3195 8.67737ZM6.5625 16.3164V3.68362L16.8875 10L6.5625 16.3164Z" fill="white"/>
</svg>
